<svg width="48" height="48" viewBox="0 0 48 48" fill="none" xmlns="http://www.w3.org/2000/svg">
    <path fill-rule="evenodd" clip-rule="evenodd" d="M14.8711 2.35884C20.5201 -0.7862 27.4799 -0.786199 33.1289 2.35884L38.8711 5.55574C44.5201 8.70079 48 14.5131 48 20.8031V27.197C48 33.487 44.5201 39.2993 38.8711 42.4444L33.1289 45.6413C27.4799 48.7863 20.5201 48.7863 14.8711 45.6413L9.12893 42.4444C3.47993 39.2993 0 33.487 0 27.197V20.8031C0 14.5131 3.47993 8.70079 9.12893 5.55574L14.8711 2.35884ZM23.7696 10.3566C20.6937 10.1979 20.6936 10.1993 20.6936 10.2006L20.6934 10.2034L20.6931 10.2095L20.6924 10.2235L20.691 10.2583C20.6899 10.2847 20.6889 10.3171 20.688 10.3553C20.6862 10.4317 20.6851 10.5316 20.6864 10.6525C20.6888 10.8937 20.7007 11.2214 20.7359 11.6148C20.8057 12.3952 20.9706 13.4697 21.3574 14.6566C22.1357 17.0449 23.8754 20.0331 27.6171 21.7735C29.3768 22.5919 30.2237 23.9603 30.6567 25.2888C30.8755 25.9604 30.9725 26.5844 31.0131 27.0378C31.0331 27.2614 31.0386 27.4345 31.0396 27.5399C31.0402 27.5923 31.0396 27.6271 31.0393 27.6421C31.0391 27.6496 31.039 27.652 31.0391 27.6491L31.0394 27.6408L31.0398 27.6335L31.04 27.6291L31.0401 27.6267C31.0402 27.6255 31.0403 27.6242 34.1161 27.7829C37.192 27.9416 37.1921 27.9403 37.1921 27.9389L37.1923 27.9361L37.1926 27.93L37.1933 27.9161L37.1947 27.8812C37.1953 27.8669 37.1959 27.8508 37.1964 27.8329C37.1968 27.8179 37.1973 27.8017 37.1977 27.7842C37.1995 27.7078 37.2006 27.6079 37.1993 27.4871C37.1969 27.2459 37.185 26.9182 37.1498 26.5248C37.08 25.7443 36.9151 24.6698 36.5283 23.483C35.75 21.0947 34.0103 18.1065 30.2685 16.3661C28.5089 15.5476 27.662 14.1793 27.229 12.8507C27.0101 12.1792 26.9132 11.5551 26.8726 11.1017C26.8526 10.8782 26.8471 10.7051 26.8461 10.5997C26.8455 10.5473 26.8461 10.5124 26.8464 10.4974L26.8466 10.4904L26.8463 10.4988L26.8459 10.506L26.8457 10.5104L26.8456 10.5128C26.8455 10.5141 26.8454 10.5153 23.7696 10.3566ZM13.7117 20.4176C10.6359 20.2589 10.6358 20.2602 10.6357 20.2616L10.6356 20.2644L10.6353 20.2705L10.6346 20.2844L10.6331 20.3193C10.6321 20.3456 10.6311 20.3781 10.6302 20.4163C10.6284 20.4927 10.6273 20.5926 10.6285 20.7135C10.631 20.9546 10.6428 21.2823 10.678 21.6757C10.7479 22.4562 10.9128 23.5307 11.2996 24.7175C12.0779 27.1058 13.8176 30.094 17.5593 31.8344C19.3189 32.6529 20.1659 34.0212 20.5989 35.3498C20.8177 36.0214 20.9147 36.6454 20.9552 37.0988C20.9752 37.3223 20.9807 37.4955 20.9818 37.6008C20.9824 37.6532 20.9818 37.6881 20.9814 37.7031C20.9813 37.7078 20.9812 37.7105 20.9812 37.7111L20.9813 37.7101L20.9816 37.7018L20.982 37.6945L20.9822 37.6901L20.9823 37.6877C20.9824 37.6864 20.9824 37.6852 24.0583 37.8439C27.1342 38.0026 27.1342 38.0012 27.1343 37.9999L27.1345 37.9971L27.1348 37.991L27.1354 37.977L27.1369 37.9422C27.1379 37.9159 27.139 37.8834 27.1399 37.8452C27.1416 37.7688 27.1427 37.6689 27.1415 37.548C27.139 37.3068 27.1272 36.9792 27.092 36.5857C27.0222 35.8053 26.8573 34.7308 26.4705 33.5439C25.6922 31.1556 23.9525 28.1674 20.2107 26.4271C18.4511 25.6086 17.6042 24.2402 17.1712 22.9117C16.9523 22.2401 16.8554 21.6161 16.8148 21.1627C16.7948 20.9391 16.7893 20.766 16.7882 20.6607C16.7877 20.6082 16.7883 20.5734 16.7886 20.5584L16.7888 20.5514L16.7884 20.5597L16.7881 20.567L16.7879 20.5714L16.7877 20.5738C16.7877 20.575 16.7876 20.5763 13.7117 20.4176Z" fill="#610BEF" />
</svg>
    